# xmcd CD database file
#
# Track frame offsets:
#	150
#	16707
#	41257
#	61757
#	83387
#	102420
#	127345
#	144540
#	169307
#	190040
#	212337
#
# Disc length: 3191 seconds
#
# Revision: 1
# Processed by: cddbd v1.5.2PL0 Copyright (c) Steve Scherf et al.
# Submitted via: CDex 1.51
#
DISCID=870c750b
DTITLE=Rita Coolidge - Love Lessons
DYEAR=1993
DGENRE=Rock
TTITLE0=Heart Don't Fail Me Now
TTITLE1=Just A Kiss Away
TTITLE2=Nobody But You
TTITLE3=If You Find It
TTITLE4=Love Lessons
TTITLE5=Ain't No Reason
TTITLE6=You've Got The Best Of Me
TTITLE7=Girlfriend
TTITLE8=One Heartbeat
TTITLE9=I Want To Know What Love Is
TTITLE10=Cherokee
EXTD=Caliber-1993 YEAR: 1993
EXTT0=
EXTT1=
EXTT2=
EXTT3=
EXTT4=
EXTT5=
EXTT6=
EXTT7=
EXTT8=
EXTT9=
EXTT10=
PLAYORDER=
